<svg width="211" height="60" viewBox="0 0 211 60" fill="none" xmlns="http://www.w3.org/2000/svg">
<path d="M3.2041 60H0V56.7959H3.2041V60ZM6.99023 60H3.78613V56.7959H6.99023V60ZM10.7764 60H7.57227V56.7959H10.7764V60ZM16.6016 60H13.3975V56.7959H16.6016V60ZM24.1748 60H20.9707V56.7959H24.1748V60ZM33.7871 60H30.583V56.7959H33.7871V60ZM43.3984 60H40.1943V56.7959H43.3984V60ZM47.1846 60H43.9805V56.7959H47.1846V60ZM50.9717 60H47.7676V56.7959H50.9717V60ZM58.2529 60H55.0488V56.7959H58.2529V60ZM62.0391 60H58.835V56.7959H62.0391V60ZM65.8252 60H62.6211V56.7959H65.8252V60ZM69.6123 60H66.4082V56.7959H69.6123V60ZM73.3984 60H70.1943V56.7959H73.3984V60ZM77.1846 60H73.9805V56.7959H77.1846V60ZM80.9707 60H77.7666V56.7959H80.9707V60ZM84.7578 60H81.5537V56.7959H84.7578V60ZM88.5439 60H85.3398V56.7959H88.5439V60ZM92.3301 60H89.126V56.7959H92.3301V60ZM96.1162 60H92.9121V56.7959H96.1162V60ZM99.9033 60H96.6992V56.7959H99.9033V60ZM103.689 60H100.485V56.7959H103.689V60ZM107.476 60H104.271V56.7959H107.476V60ZM111.262 60H108.058V56.7959H111.262V60ZM115.049 60H111.845V56.7959H115.049V60ZM122.33 60H119.126V56.7959H122.33V60ZM135.728 60H132.523V56.7959H135.728V60ZM143.302 60H140.098V56.7959H143.302V60ZM149.127 60H145.923V56.7959H149.127V60ZM152.913 60H149.709V56.7959H152.913V60ZM156.699 60H153.495V56.7959H156.699V60ZM166.312 60H163.107V56.7959H166.312V60ZM175.922 60H172.718V56.7959H175.922V60ZM179.709 60H176.505V56.7959H179.709V60ZM183.496 60H180.292V56.7959H183.496V60ZM189.321 60H186.117V56.7959H189.321V60ZM196.894 60H193.689V56.7959H196.894V60ZM206.505 60H203.301V56.7959H206.505V60ZM10.7764 56.2139H7.57227V53.0098H10.7764V56.2139ZM16.6016 56.2139H13.3975V53.0098H16.6016V56.2139ZM24.1748 56.2139H20.9707V53.0098H24.1748V56.2139ZM33.7871 56.2139H30.583V53.0098H33.7871V56.2139ZM50.9717 56.2139H47.7676V53.0098H50.9717V56.2139ZM58.2529 56.2139H55.0488V53.0098H58.2529V56.2139ZM62.0391 56.2139H58.835V53.0098H62.0391V56.2139ZM65.8252 56.2139H62.6211V53.0098H65.8252V56.2139ZM69.6123 56.2139H66.4082V53.0098H69.6123V56.2139ZM73.3984 56.2139H70.1943V53.0098H73.3984V56.2139ZM77.1846 56.2139H73.9805V53.0098H77.1846V56.2139ZM80.9707 56.2139H77.7666V53.0098H80.9707V56.2139ZM84.7578 56.2139H81.5537V53.0098H84.7578V56.2139ZM88.5439 56.2139H85.3398V53.0098H88.5439V56.2139ZM92.3301 56.2139H89.126V53.0098H92.3301V56.2139ZM96.1162 56.2139H92.9121V53.0098H96.1162V56.2139ZM99.9033 56.2139H96.6992V53.0098H99.9033V56.2139ZM103.689 56.2139H100.485V53.0098H103.689V56.2139ZM107.476 56.2139H104.271V53.0098H107.476V56.2139ZM111.262 56.2139H108.058V53.0098H111.262V56.2139ZM115.049 56.2139H111.845V53.0098H115.049V56.2139ZM122.33 56.2139H119.126V53.0098H122.33V56.2139ZM135.728 56.2139H132.523V53.0098H135.728V56.2139ZM143.302 56.2139H140.098V53.0098H143.302V56.2139ZM149.127 56.2139H145.923V53.0098H149.127V56.2139ZM166.312 56.2139H163.107V53.0098H166.312V56.2139ZM175.922 56.2139H172.718V53.0098H175.922V56.2139ZM183.496 56.2139H180.292V53.0098H183.496V56.2139ZM189.321 56.2139H186.117V53.0098H189.321V56.2139ZM196.894 56.2139H193.689V53.0098H196.894V56.2139ZM206.505 56.2139H203.301V53.0098H206.505V56.2139ZM3.2041 52.4277H0V49.2236H3.2041V52.4277ZM6.99023 52.4277H3.78613V49.2236H6.99023V52.4277ZM10.7764 52.4277H7.57227V49.2236H10.7764V52.4277ZM16.6016 52.4277H13.3975V49.2236H16.6016V52.4277ZM20.3877 52.4277H17.1836V49.2236H20.3877V52.4277ZM24.1748 52.4277H20.9707V49.2236H24.1748V52.4277ZM33.7871 52.4277H30.583V49.2236H33.7871V52.4277ZM43.3984 52.4277H40.1943V49.2236H43.3984V52.4277ZM47.1846 52.4277H43.9805V49.2236H47.1846V52.4277ZM50.9717 52.4277H47.7676V49.2236H50.9717V52.4277ZM58.2529 52.4277H55.0488V49.2236H58.2529V52.4277ZM62.0391 52.4277H58.835V49.2236H62.0391V52.4277ZM65.8252 52.4277H62.6211V49.2236H65.8252V52.4277ZM69.6123 52.4277H66.4082V49.2236H69.6123V52.4277ZM73.3984 52.4277H70.1943V49.2236H73.3984V52.4277ZM77.1846 52.4277H73.9805V49.2236H77.1846V52.4277ZM80.9707 52.4277H77.7666V49.2236H80.9707V52.4277ZM84.7578 52.4277H81.5537V49.2236H84.7578V52.4277ZM88.5439 52.4277H85.3398V49.2236H88.5439V52.4277ZM92.3301 52.4277H89.126V49.2236H92.3301V52.4277ZM96.1162 52.4277H92.9121V49.2236H96.1162V52.4277ZM99.9033 52.4277H96.6992V49.2236H99.9033V52.4277ZM103.689 52.4277H100.485V49.2236H103.689V52.4277ZM107.476 52.4277H104.271V49.2236H107.476V52.4277ZM111.262 52.4277H108.058V49.2236H111.262V52.4277ZM115.049 52.4277H111.845V49.2236H115.049V52.4277ZM122.33 52.4277H119.126V49.2236H122.33V52.4277ZM126.116 52.4277H122.912V49.2236H126.116V52.4277ZM129.902 52.4277H126.698V49.2236H129.902V52.4277ZM135.728 52.4277H132.523V49.2236H135.728V52.4277ZM139.515 52.4277H136.311V49.2236H139.515V52.4277ZM143.302 52.4277H140.098V49.2236H143.302V52.4277ZM149.127 52.4277H145.923V49.2236H149.127V52.4277ZM166.312 52.4277H163.107V49.2236H166.312V52.4277ZM175.922 52.4277H172.718V49.2236H175.922V52.4277ZM183.496 52.4277H180.292V49.2236H183.496V52.4277ZM189.321 52.4277H186.117V49.2236H189.321V52.4277ZM193.107 52.4277H189.903V49.2236H193.107V52.4277ZM202.719 52.4277H199.515V49.2236H202.719V52.4277ZM206.505 52.4277H203.301V49.2236H206.505V52.4277ZM210.292 52.4277H207.088V49.2236H210.292V52.4277ZM3.2041 48.6406H0V45.4375H3.2041V48.6406ZM16.6016 48.6406H13.3975V45.4375H16.6016V48.6406ZM33.7871 48.6406H30.583V45.4375H33.7871V48.6406ZM43.3984 48.6406H40.1943V45.4375H43.3984V48.6406ZM58.2529 48.6406H55.0488V45.4375H58.2529V48.6406ZM62.0391 48.6406H58.835V45.4375H62.0391V48.6406ZM65.8252 48.6406H62.6211V45.4375H65.8252V48.6406ZM69.6123 48.6406H66.4082V45.4375H69.6123V48.6406ZM73.3984 48.6406H70.1943V45.4375H73.3984V48.6406ZM77.1846 48.6406H73.9805V45.4375H77.1846V48.6406ZM80.9707 48.6406H77.7666V45.4375H80.9707V48.6406ZM84.7578 48.6406H81.5537V45.4375H84.7578V48.6406ZM88.5439 48.6406H85.3398V45.4375H88.5439V48.6406ZM92.3301 48.6406H89.126V45.4375H92.3301V48.6406ZM96.1162 48.6406H92.9121V45.4375H96.1162V48.6406ZM99.9033 48.6406H96.6992V45.4375H99.9033V48.6406ZM103.689 48.6406H100.485V45.4375H103.689V48.6406ZM107.476 48.6406H104.271V45.4375H107.476V48.6406ZM111.262 48.6406H108.058V45.4375H111.262V48.6406ZM115.049 48.6406H111.845V45.4375H115.049V48.6406ZM122.33 48.6406H119.126V45.4375H122.33V48.6406ZM135.728 48.6406H132.523V45.4375H135.728V48.6406ZM149.127 48.6406H145.923V45.4375H149.127V48.6406ZM166.312 48.6406H163.107V45.4375H166.312V48.6406ZM175.922 48.6406H172.718V45.4375H175.922V48.6406ZM183.496 48.6406H180.292V45.4375H183.496V48.6406ZM189.321 48.6406H186.117V45.4375H189.321V48.6406ZM196.894 48.6406H193.689V45.4375H196.894V48.6406ZM202.719 48.6406H199.515V45.4375H202.719V48.6406ZM210.292 48.6406H207.088V45.4375H210.292V48.6406ZM24.1748 48.583H20.9707V45.3789H24.1748V48.583ZM143.302 48.583H140.098V45.3789H143.302V48.583ZM3.2041 44.8545H0V41.6504H3.2041V44.8545ZM6.99023 44.8545H3.78613V41.6504H6.99023V44.8545ZM10.7764 44.8545H7.57227V41.6504H10.7764V44.8545ZM16.6016 44.8545H13.3975V41.6504H16.6016V44.8545ZM20.3877 44.8545H17.1836V41.6504H20.3877V44.8545ZM24.1748 44.8545H20.9707V41.6504H24.1748V44.8545ZM30.001 44.8545H26.7969V41.6504H30.001V44.8545ZM33.7871 44.8545H30.583V41.6504H33.7871V44.8545ZM37.5732 44.8545H34.3691V41.6504H37.5732V44.8545ZM43.3984 44.8545H40.1943V41.6504H43.3984V44.8545ZM47.1846 44.8545H43.9805V41.6504H47.1846V44.8545ZM50.9717 44.8545H47.7676V41.6504H50.9717V44.8545ZM58.2529 44.8545H55.0488V41.6504H58.2529V44.8545ZM62.0391 44.8545H58.835V41.6504H62.0391V44.8545ZM65.8252 44.8545H62.6211V41.6504H65.8252V44.8545ZM69.6123 44.8545H66.4082V41.6504H69.6123V44.8545ZM73.3984 44.8545H70.1943V41.6504H73.3984V44.8545ZM77.1846 44.8545H73.9805V41.6504H77.1846V44.8545ZM80.9707 44.8545H77.7666V41.6504H80.9707V44.8545ZM84.7578 44.8545H81.5537V41.6504H84.7578V44.8545ZM88.5439 44.8545H85.3398V41.6504H88.5439V44.8545ZM92.3301 44.8545H89.126V41.6504H92.3301V44.8545ZM96.1162 44.8545H92.9121V41.6504H96.1162V44.8545ZM99.9033 44.8545H96.6992V41.6504H99.9033V44.8545ZM103.689 44.8545H100.485V41.6504H103.689V44.8545ZM107.476 44.8545H104.271V41.6504H107.476V44.8545ZM111.262 44.8545H108.058V41.6504H111.262V44.8545ZM115.049 44.8545H111.845V41.6504H115.049V44.8545ZM122.329 44.8545H119.126V41.6504H122.329V44.8545ZM126.116 44.8545H122.912V41.6504H126.116V44.8545ZM129.902 44.8545H126.698V41.6504H129.902V44.8545ZM135.728 44.8545H132.523V41.6504H135.728V44.8545ZM139.515 44.8545H136.311V41.6504H139.515V44.8545ZM143.302 44.8545H140.098V41.6504H143.302V44.8545ZM149.127 44.8545H145.923V41.6504H149.127V44.8545ZM152.913 44.8545H149.709V41.6504H152.913V44.8545ZM156.699 44.8545H153.495V41.6504H156.699V44.8545ZM162.524 44.8545H159.32V41.6504H162.524V44.8545ZM166.312 44.8545H163.107V41.6504H166.312V44.8545ZM170.097 44.8545H166.893V41.6504H170.097V44.8545ZM175.922 44.8545H172.718V41.6504H175.922V44.8545ZM179.709 44.8545H176.505V41.6504H179.709V44.8545ZM183.496 44.8545H180.292V41.6504H183.496V44.8545ZM189.321 44.8545H186.117V41.6504H189.321V44.8545ZM193.107 44.8545H189.903V41.6504H193.107V44.8545ZM196.894 44.8545H193.689V41.6504H196.894V44.8545ZM202.719 44.8545H199.515V41.6504H202.719V44.8545ZM210.292 44.8545H207.088V41.6504H210.292V44.8545ZM62.0391 41.0684H58.835V37.8643H62.0391V41.0684ZM69.6123 41.0684H66.4082V37.8643H69.6123V41.0684ZM77.1846 41.0684H73.9805V37.8643H77.1846V41.0684ZM84.7578 41.0684H81.5537V37.8643H84.7578V41.0684ZM88.5439 41.0684H85.3398V37.8643H88.5439V41.0684ZM92.3301 41.0684H89.126V37.8643H92.3301V41.0684ZM99.9033 41.0684H96.6992V37.8643H99.9033V41.0684ZM107.476 41.0684H104.271V37.8643H107.476V41.0684ZM111.262 41.0684H108.058V37.8643H111.262V41.0684ZM115.049 41.0684H111.845V37.8643H115.049V41.0684ZM58.2529 41.0674H55.0488V37.8643H58.2529V41.0674ZM65.8252 41.0674H62.6211V37.8643H65.8252V41.0674ZM73.3984 41.0674H70.1943V37.8643H73.3984V41.0674ZM80.9707 41.0674H77.7666V37.8643H80.9707V41.0674ZM96.1162 41.0674H92.9121V37.8643H96.1162V41.0674ZM103.689 41.0674H100.485V37.8643H103.689V41.0674ZM65.8252 37.2812H62.6211V34.0781H65.8252V37.2812ZM69.6123 37.2812H66.4082V34.0781H69.6123V37.2812ZM80.9707 37.2812H77.7666V34.0781H80.9707V37.2812ZM84.7578 37.2812H81.5537V34.0781H84.7578V37.2812ZM88.5439 37.2812H85.3398V34.0781H88.5439V37.2812ZM92.3301 37.2812H89.126V34.0781H92.3301V37.2812ZM103.689 37.2812H100.485V34.0781H103.689V37.2812ZM107.476 37.2812H104.271V34.0781H107.476V37.2812ZM111.262 37.2812H108.058V34.0781H111.262V37.2812ZM115.049 37.2812H111.845V34.0781H115.049V37.2812ZM65.8252 33.4951H62.6211V30.291H65.8252V33.4951ZM69.6123 33.4951H66.4082V30.291H69.6123V33.4951ZM80.9707 33.4951H77.7666V30.291H80.9707V33.4951ZM84.7578 33.4951H81.5537V30.291H84.7578V33.4951ZM88.5439 33.4951H85.3398V30.291H88.5439V33.4951ZM92.3301 33.4951H89.126V30.291H92.3301V33.4951ZM103.689 33.4951H100.485V30.291H103.689V33.4951ZM107.476 33.4951H104.271V30.291H107.476V33.4951ZM111.262 33.4951H108.058V30.291H111.262V33.4951ZM115.049 33.4951H111.845V30.291H115.049V33.4951ZM80.9707 29.709H77.7666V26.5049H80.9707V29.709ZM84.7578 29.709H81.5537V26.5049H84.7578V29.709ZM88.5439 29.709H85.3398V26.5049H88.5439V29.709ZM92.3301 29.709H89.126V26.5049H92.3301V29.709ZM103.689 29.709H100.485V26.5049H103.689V29.709ZM107.476 29.709H104.271V26.5049H107.476V29.709ZM111.262 29.709H108.058V26.5049H111.262V29.709ZM115.049 29.709H111.845V26.5049H115.049V29.709ZM84.7578 25.9229H81.5537V22.7188H84.7578V25.9229ZM88.5439 25.9229H85.3398V22.7188H88.5439V25.9229ZM92.3301 25.9229H89.126V22.7188H92.3301V25.9229ZM107.476 25.9229H104.271V22.7188H107.476V25.9229ZM111.262 25.9229H108.058V22.7188H111.262V25.9229ZM115.049 25.9229H111.845V22.7188H115.049V25.9229ZM80.9707 25.9219H77.7666V22.7188H80.9707V25.9219ZM103.689 25.9219H100.485V22.7188H103.689V25.9219ZM88.5439 22.1357H85.3398V18.9326H88.5439V22.1357ZM92.3301 22.1357H89.126V18.9326H92.3301V22.1357ZM103.689 22.1357H100.485V18.9326H103.689V22.1357ZM107.476 22.1357H104.271V18.9326H107.476V22.1357ZM111.262 22.1357H108.058V18.9326H111.262V22.1357ZM115.049 22.1357H111.845V18.9326H115.049V22.1357ZM88.5439 18.3496H85.3398V15.1455H88.5439V18.3496ZM92.3301 18.3496H89.126V15.1455H92.3301V18.3496ZM103.689 18.3496H100.485V15.1465H103.689V18.3496ZM107.476 18.3496H104.271V15.1455H107.476V18.3496ZM111.262 18.3496H108.058V15.1465H111.262V18.3496ZM115.049 18.3496H111.845V15.1455H115.049V18.3496ZM103.689 14.5635H100.485V11.3594H103.689V14.5635ZM107.476 14.5635H104.271V11.3594H107.476V14.5635ZM111.262 14.5635H108.058V11.3594H111.262V14.5635ZM115.049 14.5635H111.845V11.3594H115.049V14.5635ZM103.689 10.7764H100.485V7.57227H103.689V10.7764ZM107.476 10.7764H104.271V7.57324H107.476V10.7764ZM111.262 10.7764H108.058V7.57324H111.262V10.7764ZM115.049 10.7764H111.845V7.57324H115.049V10.7764ZM111.262 6.99023H108.058V3.78613H111.262V6.99023ZM115.049 6.99023H111.845V3.78613H115.049V6.99023ZM111.262 3.2041H108.058V0H111.262V3.2041ZM115.049 3.2041H111.845V0H115.049V3.2041Z" fill="url(#paint0_linear_50_326)"/>
<defs>
<linearGradient id="paint0_linear_50_326" x1="0" y1="60" x2="171.872" y2="-56.6221" gradientUnits="userSpaceOnUse">
<stop stop-color="#81726D"/>
<stop offset="0.13" stop-color="#E7B7A0"/>
<stop offset="0.35" stop-color="white"/>
<stop offset="0.7" stop-color="#E9BE93"/>
<stop offset="0.85" stop-color="#CCCCCC"/>
<stop offset="1" stop-color="#858585"/>
</linearGradient>
</defs>
</svg>
